<?xml version="1.0" encoding="iso-8859-1"?>
<!-- Uploaded to: SVG Repo, www.svgrepo.com, Generator: SVG Repo Mixer Tools -->
<svg fill="#000000" height="800px" width="800px" version="1.1" id="Layer_1" xmlns="http://www.w3.org/2000/svg" xmlns:xlink="http://www.w3.org/1999/xlink" 
         viewBox="0 0 301.015 301.015">
<defs>
  <linearGradient id="gradient" x1="0%" y1="0%" x2="100%" y2="0%">
    <stop offset="0%" stop-color="#2196F3"/>
    <stop offset="100%" stop-color="#1565C0"/>
  </linearGradient>
</defs>

<rect fill="url(#gradient)" x="0" y="0" width="301.015" height="301.015" />
<g fill="#2e2d2d">
	<g>
		<path xmlns="http://www.w3.org/2000/svg" d="M192,0c5.667,0,11.333,0,17,0c51.658,4.096,86.839,67.311,58,116h69c0,0,41.751,188.916,64,282c0,0.667,0,1.333,0,2  c-112.846,0-232.753,0-350,0c-17.075,0-40.093,1.56-50-2c23.337-92.996,67-282,67-282h66C106.451,68.814,139.033,3.568,192,0z   M158,84.998c10.819,51.913,94.877,39.687,85-19c-3.434-20.396-23.787-36.085-48-33C170.673,36.097,152.289,57.591,158,84.998z"/>
	</g>
</g>
</svg>